<svg version="1.1" xmlns="http://www.w3.org/2000/svg" x="0" y="0" viewBox="0 0 695.3 208.4" xml:space="preserve" enable-background="new 0 0 695.26 208.44"><switch><g><path d="M133.4 76.9c0-5.1-4.1-9.3-9.2-9.3-3.2 0-5.3 1.3-6.9 2.6L91.5 92c-1 .8-1.6 1-2.5 1-1 0-2.2-1-2.2-2.3V67.2c0-5-4.3-9.3-9.2-9.3-3.3 0-5.3 1.3-7 2.5L44.4 82.8a7.2 7.2 0 0 0-2.7 5.7v39.8c0 5.1 4.2 9.3 9.3 9.3 3.2 0 5.2-1.3 6.8-2.6l25.8-21.9c1.1-.8 1.7-1 2.5-1 1 0 2.3 1 2.3 2.3V138c0 5 4.2 9.3 9.2 9.3 3.2 0 5.2-1.3 6.8-2.5l26.4-22.4a7.2 7.2 0 0 0 2.7-5.6V76.9zM100 139.4c-1.1.8-1.7 1-2.5 1-1 0-2.3-1-2.3-2.3v-23.6c0-5-4.2-9.3-9.2-9.3-3.2 0-5.2 1.3-6.8 2.5l-25.8 22c-1.1.8-1.7 1-2.5 1-1.1 0-2.3-1-2.3-2.4v-40L75 66c1.1-.9 1.7-1 2.6-1 1 0 2.2 1 2.2 2.3v23.6c0 5 4.2 9.2 9.2 9.2 3.2 0 5.3-1.2 6.9-2.5l25.8-21.9c1-.9 1.6-1 2.5-1 1 0 2.2 1 2.2 2.3v40L100 139.4zM212 125.5V63.3c0-.5-.5-1-1-1h-4.6a1 1 0 0 0-1 1v27.8h-30.3V63.3c0-.5-.4-1-1-1h-4.5a1 1 0 0 0-1 1v62.2c0 .5.4 1 1 1h4.5c.5 0 1-.5 1-1V96.8h30.3v28.7c0 .5.5 1 1 1h4.5c.6 0 1-.5 1-1zM358.4 80.8v44.7c0 .5.4 1 1 1h4.5c.5 0 1-.5 1-1V80.8c0-.5-.5-1-1-1h-4.5a1 1 0 0 0-1 1zM361.6 62.1a4.3 4.3 0 1 0 0 8.6 4.3 4.3 0 0 0 0-8.6zM469 79.1c-6 0-10.6 3-13.9 8.8a13.5 13.5 0 0 0-13.3-8.8c-6.7 0-10.3 2.8-13.3 8.8v-7c0-.6-.4-1-1-1H423a1 1 0 0 0-1 1v44.6c0 .5.5 1 1 1h4.5c.6 0 1-.5 1-1v-25.2c0-7 3.8-15.5 11.7-15.5 6 0 9.1 4 9.1 10.2v30.5c0 .5.5 1 1 1h4.5c.6 0 1-.5 1-1v-25.1c0-7 3.8-15.6 11.7-15.6 6 0 9.1 4 9.1 10.3v30.4c0 .5.5 1 1 1h4.5c.6 0 1-.5 1-1V93.3c0-8.6-5.5-14.2-14-14.2zM561 79.1c-12.8 0-20.7 9.2-20.7 24 0 14.9 8 24.1 20.7 24.1 4.2 0 10.4-2 14.8-7.3v5.6c0 .5.4 1 1 1h4.5c.5 0 1-.5 1-1V63.3c0-.5-.5-1-1-1h-4.5a1 1 0 0 0-1 1v22.8c-4.2-4.6-9.6-7-14.8-7zm15.4 24c0 11.2-5.7 18.4-14.7 18.4-8.8 0-14.7-7.4-14.7-18.3 0-11 6-18.4 14.7-18.4 9 0 14.7 7.2 14.7 18.4zM645.7 80.8v5.3c-4.3-4.6-9.7-7-14.9-7-12.7 0-20.6 9.2-20.6 24 0 14.9 8 24.1 20.6 24.1 4.3 0 10.5-2 14.9-7.3v5.6c0 .5.4 1 1 1h4.5c.5 0 1-.5 1-1V80.8c0-.5-.5-1-1-1h-4.6a1 1 0 0 0-1 1zm-14 40.7c-8.9 0-14.8-7.4-14.8-18.3 0-11 6-18.4 14.7-18.4 9 0 14.7 7.2 14.7 18.4 0 11.1-5.8 18.3-14.7 18.3zM256.6 80.8v5.3c-4.2-4.6-9.6-7-14.8-7-12.7 0-20.6 9.2-20.6 24 0 14.9 7.9 24.1 20.6 24.1 4.3 0 10.4-2 14.8-7.3v5.6c0 .5.5 1 1 1h4.5c.6 0 1-.5 1-1V80.8c0-.5-.4-1-1-1h-4.5a1 1 0 0 0-1 1zm-14 40.7c-8.8 0-14.7-7.4-14.7-18.3 0-11 5.9-18.4 14.7-18.4 9 0 14.7 7.2 14.7 18.4 0 11.1-5.8 18.3-14.7 18.3zM374.3 103.2c0-12.8 6.5-24.1 21.1-24.1 8.8 0 16 4.1 18.6 11.6.2.7-.2 1.3-1 1.3h-4.4a1 1 0 0 1-.8-.4c-2.5-4.7-6.8-6.8-12.4-6.8-9 0-14.4 6.9-14.4 18.3 0 11.5 5.4 18.4 14.4 18.4 5.6 0 9.9-2.2 12.4-6.8.2-.3.5-.5.8-.5h4.5c.7 0 1.1.7.9 1.4-2.6 7.5-9.8 11.6-18.6 11.6-14.5 0-21-11.3-21-24zM295.8 127.2c12.7 0 20.6-9.2 20.6-24 0-14.9-7.9-24.1-20.6-24.1-4.2 0-10.4 2-14.8 7.3v-5.6c0-.5-.4-1-1-1h-4.5a1 1 0 0 0-1 1V143c0 .5.5 1 1 1h4.5c.6 0 1-.5 1-1v-22.8c4.2 4.6 9.6 7 14.8 7zm-15.5-24c0-11.2 5.8-18.4 14.7-18.4 8.8 0 14.8 7.4 14.8 18.4 0 11-6 18.3-14.8 18.3-8.9 0-14.7-7.2-14.7-18.3zM594.1 80.8v44.7c0 .5.5 1 1 1h4.5c.6 0 1-.5 1-1V80.8c0-.5-.4-1-1-1h-4.5a1 1 0 0 0-1 1zM597.4 62.1a4.3 4.3 0 1 0 0 8.6 4.3 4.3 0 0 0 0-8.6zM513 79.1c-10.5 0-21 7.3-21 24s10.7 24.1 21.2 24.1c7.7 0 15-3.1 18.6-10.6.3-.7 0-1.3-.8-1.3l-5-.1a1 1 0 0 0-.8.5c-2.4 4-6.7 5.8-12 5.8-8.5 0-14.2-6.4-14.4-16.3h33c1 0 1.7-.8 1.7-1.7.8-13.8-6.6-24.4-20.5-24.4zm-14.2 21c.7-10.7 7-15.3 14.2-15.3 8.4 0 14 5.3 13.9 15.3h-28.1zM348.2 121.8c0-.7-.5-1-1.1-1-2.4.3-4 .3-5.5.3-6.3 0-8.2-1.8-8.2-6.4V85.6h13.7c.6 0 1-.5 1-1v-3.8c0-.5-.4-1-1-1h-13.7V68.4a.9.9 0 0 0-1.5-.7l-4.7 4c-.2.2-.3.4-.3.7v7.6h-6.6a1 1 0 0 0-1 1v3.7c0 .5.5 1 1 1h6.6v29c0 9.8 5.4 12.2 13 12.2 4.2 0 6-.3 7.6-.8.4 0 .7-.5.7-.9v-3.3z"/></g></switch></svg>
